<?xml version="1.0" encoding="UTF-8"?>
<svg id="Layer_1" data-name="Layer 1" xmlns="http://www.w3.org/2000/svg" viewBox="0 0 323.19 122.12">
  <defs>
    <style>
      .cls-1 {
        fill: #0077bf;
      }

      .cls-2 {
        fill: #0055ca;
      }

      .cls-3 {
        fill: #fff;
      }

      .cls-4 {
        fill: #032160;
      }
    </style>
  </defs>
  <path class="cls-1" d="M226.73,7.23h-54.32v108.6h52.14c.73.02,1.45.05,2.19.05,29.95,0,54.32-24.37,54.32-54.32s-24.37-54.32-54.32-54.32Z"/>
  <path class="cls-2" d="M214.52,7.23h-54.32v108.6h52.14c.73.02,1.45.05,2.19.05,29.95,0,54.32-24.37,54.32-54.32S244.47,7.23,214.52,7.23Z"/>
  <path class="cls-4" d="M202.3,7.25H52.17v108.6h147.94v-.02c.73.03,1.45.06,2.19.06,29.95,0,54.32-24.37,54.32-54.32S232.26,7.25,202.3,7.25Z"/>
  <g>
    <g>
      <path class="cls-3" d="M114.44,42.49v-15.66h7.35c2.79,0,4.41,1.71,4.41,3.99,0,1.97-1.29,3.29-2.72,3.59,1.67.26,3.03,1.95,3.03,3.85,0,2.47-1.64,4.23-4.53,4.23h-7.53ZM116.78,33.47h4.55c1.57,0,2.44-.99,2.44-2.28s-.87-2.3-2.44-2.3h-4.55v4.58ZM116.78,40.42h4.67c1.64,0,2.63-.94,2.63-2.46,0-1.29-.89-2.42-2.63-2.42h-4.67v4.88Z"/>
      <path class="cls-3" d="M129.41,42.49v-15.66h10.52v2.07h-8.17v4.58h8v2.07h-8v4.88h8.17v2.07h-10.52Z"/>
      <path class="cls-3" d="M146.68,42.49v-13.59h-4.86v-2.07h12.04v2.07h-4.84v13.59h-2.35Z"/>
      <path class="cls-3" d="M160.13,42.49v-13.59h-4.86v-2.07h12.04v2.07h-4.84v13.59h-2.35Z"/>
      <path class="cls-3" d="M169.75,42.49v-15.66h10.52v2.07h-8.17v4.58h8v2.07h-8v4.88h8.17v2.07h-10.52Z"/>
      <path class="cls-3" d="M192.21,42.49l-3.73-6.03h-2.93v6.03h-2.35v-15.66h6.6c2.98,0,5.02,1.92,5.02,4.81s-1.9,4.32-3.9,4.58l4.01,6.27h-2.72ZM189.48,28.9h-3.94v5.49h3.94c1.69,0,2.91-1.1,2.91-2.75s-1.22-2.75-2.91-2.75Z"/>
      <path class="cls-3" d="M114.44,62.76v-15.66h7.35c2.79,0,4.41,1.71,4.41,3.99,0,1.97-1.29,3.29-2.72,3.59,1.67.26,3.03,1.95,3.03,3.85,0,2.47-1.64,4.23-4.53,4.23h-7.53ZM116.78,53.74h4.55c1.57,0,2.44-.99,2.44-2.28s-.87-2.3-2.44-2.3h-4.55v4.58ZM116.78,60.69h4.67c1.64,0,2.63-.94,2.63-2.46,0-1.29-.89-2.42-2.63-2.42h-4.67v4.88Z"/>
      <path class="cls-3" d="M128.47,47.1h2.37v9.46c0,2.68,1.48,4.39,4.23,4.39s4.2-1.71,4.2-4.39v-9.46h2.37v9.51c0,3.9-2.18,6.43-6.57,6.43s-6.6-2.56-6.6-6.41v-9.53Z"/>
      <path class="cls-3" d="M144.57,58.74c1.06,1.17,2.75,2.21,4.93,2.21,2.54,0,3.43-1.29,3.43-2.42,0-1.64-1.78-2.11-3.78-2.63-2.51-.66-5.42-1.39-5.42-4.58,0-2.58,2.28-4.46,5.54-4.46,2.42,0,4.32.77,5.7,2.18l-1.36,1.74c-1.2-1.27-2.84-1.83-4.53-1.83s-2.93.89-2.93,2.21c0,1.41,1.69,1.85,3.64,2.35,2.56.68,5.54,1.48,5.54,4.81,0,2.44-1.69,4.72-5.91,4.72-2.79,0-4.84-1.01-6.17-2.49l1.34-1.81Z"/>
      <path class="cls-3" d="M157.1,62.76v-15.66h2.35v15.66h-2.35Z"/>
      <path class="cls-3" d="M173.01,62.76l-8.66-12.02v12.02h-2.35v-15.66h2.42l8.52,11.74v-11.74h2.35v15.66h-2.28Z"/>
      <path class="cls-3" d="M177.82,62.76v-15.66h10.52v2.07h-8.17v4.58h8v2.07h-8v4.88h8.17v2.07h-10.52Z"/>
      <path class="cls-3" d="M190.7,58.74c1.06,1.17,2.75,2.21,4.93,2.21,2.54,0,3.43-1.29,3.43-2.42,0-1.64-1.78-2.11-3.78-2.63-2.51-.66-5.42-1.39-5.42-4.58,0-2.58,2.28-4.46,5.54-4.46,2.42,0,4.32.77,5.7,2.18l-1.36,1.74c-1.2-1.27-2.84-1.83-4.53-1.83s-2.93.89-2.93,2.21c0,1.41,1.69,1.85,3.64,2.35,2.56.68,5.54,1.48,5.54,4.81,0,2.44-1.69,4.72-5.91,4.72-2.79,0-4.84-1.01-6.17-2.49l1.34-1.81Z"/>
      <path class="cls-3" d="M203.61,58.74c1.06,1.17,2.75,2.21,4.93,2.21,2.54,0,3.43-1.29,3.43-2.42,0-1.64-1.78-2.11-3.78-2.63-2.51-.66-5.42-1.39-5.42-4.58,0-2.58,2.28-4.46,5.54-4.46,2.42,0,4.32.77,5.7,2.18l-1.36,1.74c-1.2-1.27-2.84-1.83-4.53-1.83s-2.93.89-2.93,2.21c0,1.41,1.69,1.85,3.64,2.35,2.56.68,5.54,1.48,5.54,4.81,0,2.44-1.69,4.72-5.91,4.72-2.79,0-4.84-1.01-6.17-2.49l1.34-1.81Z"/>
      <path class="cls-3" d="M114.44,83.02v-15.66h7.35c2.79,0,4.41,1.71,4.41,3.99,0,1.97-1.29,3.29-2.72,3.59,1.67.26,3.03,1.95,3.03,3.85,0,2.47-1.64,4.23-4.53,4.23h-7.53ZM116.78,74.01h4.55c1.57,0,2.44-.99,2.44-2.28s-.87-2.3-2.44-2.3h-4.55v4.58ZM116.78,80.96h4.67c1.64,0,2.63-.94,2.63-2.46,0-1.29-.89-2.42-2.63-2.42h-4.67v4.88Z"/>
      <path class="cls-3" d="M129.41,67.37h2.37v9.46c0,2.68,1.48,4.39,4.23,4.39s4.2-1.71,4.2-4.39v-9.46h2.37v9.51c0,3.9-2.18,6.43-6.57,6.43s-6.6-2.56-6.6-6.41v-9.53Z"/>
      <path class="cls-3" d="M155.08,83.02l-3.73-6.03h-2.93v6.03h-2.35v-15.66h6.6c2.98,0,5.02,1.92,5.02,4.81s-1.9,4.32-3.9,4.58l4.01,6.27h-2.72ZM152.36,69.43h-3.94v5.49h3.94c1.69,0,2.91-1.1,2.91-2.75s-1.22-2.75-2.91-2.75Z"/>
      <path class="cls-3" d="M160.57,83.02v-15.66h10.52v2.07h-8.17v4.58h8v2.07h-8v4.88h8.17v2.07h-10.52Z"/>
      <path class="cls-3" d="M185.19,83.02l-1.27-3.24h-7.68l-1.27,3.24h-2.58l6.22-15.66h2.93l6.22,15.66h-2.58ZM180.07,69.41l-3.14,8.29h6.31l-3.17-8.29Z"/>
      <path class="cls-3" d="M188.99,67.37h2.37v9.46c0,2.68,1.48,4.39,4.23,4.39s4.2-1.71,4.2-4.39v-9.46h2.37v9.51c0,3.9-2.18,6.43-6.57,6.43s-6.6-2.56-6.6-6.41v-9.53Z"/>
    </g>
    <g>
      <path class="cls-3" d="M118.9,96.43l-.44-1.12h-2.66l-.44,1.12h-.89l2.15-5.42h1.02l2.15,5.42h-.89ZM117.13,91.72l-1.09,2.87h2.19l-1.1-2.87Z"/>
      <path class="cls-3" d="M119.92,93.73c0-1.66,1.23-2.8,2.78-2.8,1.06,0,1.73.51,2.15,1.15l-.69.37c-.28-.45-.82-.79-1.46-.79-1.1,0-1.94.86-1.94,2.08s.84,2.08,1.94,2.08c.64,0,1.18-.33,1.46-.79l.69.37c-.43.63-1.09,1.15-2.15,1.15-1.54,0-2.78-1.14-2.78-2.8Z"/>
      <path class="cls-3" d="M125.44,93.73c0-1.66,1.23-2.8,2.78-2.8,1.06,0,1.73.51,2.15,1.15l-.69.37c-.28-.45-.82-.79-1.46-.79-1.1,0-1.94.86-1.94,2.08s.84,2.08,1.94,2.08c.64,0,1.18-.33,1.46-.79l.69.37c-.43.63-1.09,1.15-2.15,1.15-1.54,0-2.78-1.14-2.78-2.8Z"/>
      <path class="cls-3" d="M134.3,96.43l-1.29-2.09h-1.02v2.09h-.81v-5.42h2.28c1.03,0,1.74.67,1.74,1.67s-.66,1.49-1.35,1.58l1.39,2.17h-.94ZM133.36,91.73h-1.36v1.9h1.36c.58,0,1.01-.38,1.01-.95s-.42-.95-1.01-.95Z"/>
      <path class="cls-3" d="M136.2,96.43v-5.42h3.64v.71h-2.83v1.58h2.77v.71h-2.77v1.69h2.83v.71h-3.64Z"/>
      <path class="cls-3" d="M140.85,96.43v-5.42h1.93c1.69,0,2.81,1.15,2.81,2.71s-1.12,2.7-2.81,2.7h-1.93ZM141.67,95.72h1.12c1.25,0,1.97-.89,1.97-1.99s-.7-2-1.97-2h-1.12v3.99Z"/>
      <path class="cls-3" d="M146.58,96.43v-5.42h.81v5.42h-.81Z"/>
      <path class="cls-3" d="M149.93,96.43v-4.7h-1.68v-.71h4.17v.71h-1.67v4.7h-.81Z"/>
      <path class="cls-3" d="M153.26,96.43v-5.42h3.64v.71h-2.83v1.58h2.77v.71h-2.77v1.69h2.83v.71h-3.64Z"/>
      <path class="cls-3" d="M157.91,96.43v-5.42h1.93c1.69,0,2.81,1.15,2.81,2.71s-1.12,2.7-2.81,2.7h-1.93ZM158.72,95.72h1.12c1.25,0,1.97-.89,1.97-1.99s-.7-2-1.97-2h-1.12v3.99Z"/>
      <path class="cls-3" d="M165.73,96.43v-5.42h2.54c.97,0,1.53.59,1.53,1.38,0,.68-.45,1.14-.94,1.24.58.09,1.05.67,1.05,1.33,0,.85-.57,1.46-1.57,1.46h-2.61ZM166.54,93.32h1.58c.54,0,.84-.34.84-.79s-.3-.8-.84-.8h-1.58v1.58ZM166.54,95.72h1.62c.57,0,.91-.33.91-.85,0-.45-.31-.84-.91-.84h-1.62v1.69Z"/>
      <path class="cls-3" d="M170.91,91.02h.82v3.27c0,.93.51,1.52,1.46,1.52s1.45-.59,1.45-1.52v-3.27h.82v3.29c0,1.35-.76,2.23-2.27,2.23s-2.28-.88-2.28-2.22v-3.3Z"/>
      <path class="cls-3" d="M176.81,95.05c.37.41.95.76,1.71.76.88,0,1.19-.45,1.19-.84,0-.57-.62-.73-1.31-.91-.87-.23-1.88-.48-1.88-1.58,0-.89.79-1.54,1.92-1.54.84,0,1.49.27,1.97.76l-.47.6c-.41-.44-.98-.63-1.57-.63s-1.02.31-1.02.76c0,.49.59.64,1.26.81.88.24,1.92.51,1.92,1.67,0,.84-.58,1.63-2.05,1.63-.97,0-1.67-.35-2.14-.86l.46-.63Z"/>
      <path class="cls-3" d="M181.47,96.43v-5.42h.81v5.42h-.81Z"/>
      <path class="cls-3" d="M187.3,96.43l-3-4.16v4.16h-.81v-5.42h.84l2.95,4.06v-4.06h.81v5.42h-.79Z"/>
      <path class="cls-3" d="M189.29,96.43v-5.42h3.64v.71h-2.83v1.58h2.77v.71h-2.77v1.69h2.83v.71h-3.64Z"/>
      <path class="cls-3" d="M194.08,95.05c.37.41.95.76,1.71.76.88,0,1.19-.45,1.19-.84,0-.57-.62-.73-1.31-.91-.87-.23-1.88-.48-1.88-1.58,0-.89.79-1.54,1.92-1.54.84,0,1.49.27,1.97.76l-.47.6c-.41-.44-.98-.63-1.57-.63s-1.02.31-1.02.76c0,.49.59.64,1.26.81.88.24,1.92.51,1.92,1.67,0,.84-.58,1.63-2.05,1.63-.97,0-1.67-.35-2.14-.86l.46-.63Z"/>
      <path class="cls-3" d="M198.87,95.05c.37.41.95.76,1.71.76.88,0,1.19-.45,1.19-.84,0-.57-.62-.73-1.31-.91-.87-.23-1.88-.48-1.88-1.58,0-.89.79-1.54,1.92-1.54.84,0,1.49.27,1.97.76l-.47.6c-.41-.44-.98-.63-1.57-.63s-1.02.31-1.02.76c0,.49.59.64,1.26.81.88.24,1.92.51,1.92,1.67,0,.84-.58,1.63-2.05,1.63-.97,0-1.67-.35-2.14-.86l.46-.63Z"/>
    </g>
    <g>
      <path class="cls-1" d="M100.96,33.44l2.17,2.1c2.17,2.17,3.28,5.12,3.28,8.07s-1.12,5.84-3.28,8l-8.07,8.07-4.07-4c2.82-2.82,5.58-5.64,8.27-8.33,2.23-2.23,3.35-5.12,3.35-8.07,0-2.03-.52-4.07-1.64-5.84h0Z"/>
      <path class="cls-1" d="M92.3,26.62l2.1,2.1c2.23,2.23,3.35,5.18,3.35,8.07s-1.12,5.84-3.35,8.07l-4,4h0l-2.76,2.76h0l-.33.33-.33-.33c-2.23-2.17-3.35-5.12-3.35-8s1.12-5.91,3.35-8.07l1.38-1.44c-.72,1.57-1.12,3.28-1.12,4.99,0,1.38.26,2.76.79,4.07l2.56-2.56c2.23-2.23,3.35-5.18,3.35-8.07,0-2.03-.52-4.07-1.64-5.91h0Z"/>
      <g>
        <rect class="cls-1" x="95.63" y="61.26" width="4.73" height="22.11" rx=".43" ry=".43"/>
        <rect class="cls-1" x="89.69" y="66.74" width="4.73" height="16.64" rx=".43" ry=".43"/>
      </g>
      <rect class="cls-1" x="92.66" y="43.36" width="4.73" height="28.51" rx=".57" ry=".57" transform="translate(152.64 -37.4) rotate(90)"/>
    </g>
  </g>
</svg>