<?xml version="1.0" encoding="UTF-8"?>
<svg id="Layer_1" data-name="Layer 1" xmlns="http://www.w3.org/2000/svg" viewBox="0 0 323.19 122.12">
  <defs>
    <style>
      .cls-1 {
        fill: #0077bf;
      }

      .cls-2 {
        fill: #0055ca;
      }

      .cls-3 {
        fill: #fff;
      }

      .cls-4 {
        fill: #032160;
      }
    </style>
  </defs>
  <g>
    <path class="cls-4" d="M79.75,6.53h0s0,0,0,0c-30.07,0-54.53,24.46-54.53,54.53s24.46,54.53,54.53,54.53h163.69V6.53H79.75Z"/>
    <g>
      <g>
        <path class="cls-3" d="M86.81,45.35v-13.7h6.43c2.44,0,3.86,1.5,3.86,3.49,0,1.73-1.13,2.88-2.38,3.14,1.46.23,2.65,1.71,2.65,3.37,0,2.16-1.44,3.7-3.96,3.7h-6.59ZM88.86,37.47h3.98c1.38,0,2.14-.86,2.14-1.99s-.76-2.01-2.14-2.01h-3.98v4.01ZM88.86,43.55h4.09c1.44,0,2.3-.82,2.3-2.16,0-1.13-.78-2.12-2.3-2.12h-4.09v4.27Z"/>
        <path class="cls-3" d="M99.91,45.35v-13.7h9.2v1.81h-7.15v4.01h7v1.81h-7v4.27h7.15v1.81h-9.2Z"/>
        <path class="cls-3" d="M115.02,45.35v-11.89h-4.25v-1.81h10.54v1.81h-4.23v11.89h-2.05Z"/>
        <path class="cls-3" d="M126.79,45.35v-11.89h-4.25v-1.81h10.54v1.81h-4.23v11.89h-2.05Z"/>
        <path class="cls-3" d="M135.21,45.35v-13.7h9.2v1.81h-7.15v4.01h7v1.81h-7v4.27h7.15v1.81h-9.2Z"/>
        <path class="cls-3" d="M154.86,45.35l-3.27-5.28h-2.57v5.28h-2.05v-13.7h5.77c2.61,0,4.39,1.68,4.39,4.21s-1.66,3.78-3.41,4.01l3.51,5.48h-2.38ZM152.48,33.46h-3.45v4.81h3.45c1.48,0,2.55-.97,2.55-2.4s-1.07-2.4-2.55-2.4Z"/>
        <path class="cls-3" d="M86.81,63.09v-13.7h6.43c2.44,0,3.86,1.5,3.86,3.49,0,1.73-1.13,2.88-2.38,3.14,1.46.23,2.65,1.71,2.65,3.37,0,2.16-1.44,3.7-3.96,3.7h-6.59ZM88.86,55.2h3.98c1.38,0,2.14-.86,2.14-1.99s-.76-2.01-2.14-2.01h-3.98v4.01ZM88.86,61.28h4.09c1.44,0,2.3-.82,2.3-2.16,0-1.13-.78-2.12-2.3-2.12h-4.09v4.27Z"/>
        <path class="cls-3" d="M99.09,49.39h2.07v8.28c0,2.34,1.29,3.84,3.7,3.84s3.68-1.5,3.68-3.84v-8.28h2.07v8.32c0,3.41-1.91,5.63-5.75,5.63s-5.77-2.24-5.77-5.61v-8.34Z"/>
        <path class="cls-3" d="M113.17,59.58c.92,1.03,2.4,1.93,4.31,1.93,2.22,0,3-1.13,3-2.12,0-1.44-1.56-1.85-3.31-2.3-2.2-.58-4.74-1.21-4.74-4.01,0-2.26,1.99-3.9,4.85-3.9,2.12,0,3.78.68,4.99,1.91l-1.19,1.52c-1.05-1.11-2.49-1.6-3.96-1.6s-2.57.78-2.57,1.93c0,1.23,1.48,1.62,3.18,2.05,2.24.6,4.85,1.29,4.85,4.21,0,2.14-1.48,4.13-5.18,4.13-2.44,0-4.23-.88-5.4-2.18l1.17-1.58Z"/>
        <path class="cls-3" d="M124.14,63.09v-13.7h2.05v13.7h-2.05Z"/>
        <path class="cls-3" d="M138.06,63.09l-7.58-10.52v10.52h-2.05v-13.7h2.12l7.46,10.27v-10.27h2.05v13.7h-1.99Z"/>
        <path class="cls-3" d="M142.27,63.09v-13.7h9.2v1.81h-7.15v4.01h7v1.81h-7v4.27h7.15v1.81h-9.2Z"/>
        <path class="cls-3" d="M153.54,59.58c.92,1.03,2.4,1.93,4.31,1.93,2.22,0,3-1.13,3-2.12,0-1.44-1.56-1.85-3.31-2.3-2.2-.58-4.74-1.21-4.74-4.01,0-2.26,1.99-3.9,4.85-3.9,2.12,0,3.78.68,4.99,1.91l-1.19,1.52c-1.05-1.11-2.49-1.6-3.96-1.6s-2.57.78-2.57,1.93c0,1.23,1.48,1.62,3.18,2.05,2.24.6,4.85,1.29,4.85,4.21,0,2.14-1.48,4.13-5.18,4.13-2.44,0-4.23-.88-5.4-2.18l1.17-1.58Z"/>
        <path class="cls-3" d="M164.84,59.58c.92,1.03,2.4,1.93,4.31,1.93,2.22,0,3-1.13,3-2.12,0-1.44-1.56-1.85-3.31-2.3-2.2-.58-4.74-1.21-4.74-4.01,0-2.26,1.99-3.9,4.85-3.9,2.12,0,3.78.68,4.99,1.91l-1.19,1.52c-1.05-1.11-2.49-1.6-3.96-1.6s-2.57.78-2.57,1.93c0,1.23,1.48,1.62,3.18,2.05,2.24.6,4.85,1.29,4.85,4.21,0,2.14-1.48,4.13-5.18,4.13-2.44,0-4.23-.88-5.4-2.18l1.17-1.58Z"/>
        <path class="cls-3" d="M86.81,80.83v-13.7h6.43c2.44,0,3.86,1.5,3.86,3.49,0,1.73-1.13,2.88-2.38,3.14,1.46.23,2.65,1.71,2.65,3.37,0,2.16-1.44,3.7-3.96,3.7h-6.59ZM88.86,72.94h3.98c1.38,0,2.14-.86,2.14-1.99s-.76-2.01-2.14-2.01h-3.98v4.01ZM88.86,79.02h4.09c1.44,0,2.3-.82,2.3-2.16,0-1.13-.78-2.12-2.3-2.12h-4.09v4.27Z"/>
        <path class="cls-3" d="M99.91,67.13h2.07v8.28c0,2.34,1.29,3.84,3.7,3.84s3.68-1.5,3.68-3.84v-8.28h2.07v8.32c0,3.41-1.91,5.63-5.75,5.63s-5.77-2.24-5.77-5.61v-8.34Z"/>
        <path class="cls-3" d="M122.37,80.83l-3.27-5.28h-2.57v5.28h-2.05v-13.7h5.77c2.61,0,4.39,1.68,4.39,4.21s-1.66,3.78-3.41,4.01l3.51,5.48h-2.38ZM119.99,68.94h-3.45v4.81h3.45c1.48,0,2.55-.97,2.55-2.4s-1.07-2.4-2.55-2.4Z"/>
        <path class="cls-3" d="M127.18,80.83v-13.7h9.2v1.81h-7.15v4.01h7v1.81h-7v4.27h7.15v1.81h-9.2Z"/>
        <path class="cls-3" d="M148.72,80.83l-1.11-2.83h-6.72l-1.11,2.83h-2.26l5.44-13.7h2.57l5.44,13.7h-2.26ZM144.24,68.92l-2.75,7.25h5.52l-2.77-7.25Z"/>
        <path class="cls-3" d="M152.04,67.13h2.07v8.28c0,2.34,1.29,3.84,3.7,3.84s3.68-1.5,3.68-3.84v-8.28h2.07v8.32c0,3.41-1.91,5.63-5.75,5.63s-5.77-2.24-5.77-5.61v-8.34Z"/>
      </g>
      <g>
        <path class="cls-3" d="M90.72,92.56l-.38-.98h-2.32l-.38.98h-.78l1.88-4.74h.89l1.88,4.74h-.78ZM89.17,88.44l-.95,2.51h1.91l-.96-2.51Z"/>
        <path class="cls-3" d="M91.61,90.19c0-1.46,1.08-2.45,2.43-2.45.93,0,1.51.45,1.88,1l-.6.32c-.25-.4-.72-.69-1.28-.69-.96,0-1.7.75-1.7,1.82s.74,1.82,1.7,1.82c.56,0,1.03-.29,1.28-.69l.6.32c-.38.55-.95,1-1.88,1-1.35,0-2.43-.99-2.43-2.45Z"/>
        <path class="cls-3" d="M96.44,90.19c0-1.46,1.08-2.45,2.43-2.45.93,0,1.51.45,1.88,1l-.6.32c-.25-.4-.72-.69-1.28-.69-.96,0-1.7.75-1.7,1.82s.74,1.82,1.7,1.82c.56,0,1.03-.29,1.28-.69l.6.32c-.38.55-.95,1-1.88,1-1.35,0-2.43-.99-2.43-2.45Z"/>
        <path class="cls-3" d="M104.19,92.56l-1.13-1.83h-.89v1.83h-.71v-4.74h2c.9,0,1.52.58,1.52,1.46s-.58,1.31-1.18,1.39l1.22,1.9h-.82ZM103.37,88.45h-1.19v1.66h1.19c.51,0,.88-.33.88-.83s-.37-.83-.88-.83Z"/>
        <path class="cls-3" d="M105.85,92.56v-4.74h3.18v.63h-2.47v1.39h2.42v.63h-2.42v1.48h2.47v.63h-3.18Z"/>
        <path class="cls-3" d="M109.92,92.56v-4.74h1.69c1.48,0,2.46,1.01,2.46,2.37s-.98,2.37-2.46,2.37h-1.69ZM110.64,91.94h.98c1.09,0,1.73-.78,1.73-1.74s-.61-1.75-1.73-1.75h-.98v3.49Z"/>
        <path class="cls-3" d="M114.94,92.56v-4.74h.71v4.74h-.71Z"/>
        <path class="cls-3" d="M117.86,92.56v-4.11h-1.47v-.63h3.65v.63h-1.46v4.11h-.71Z"/>
        <path class="cls-3" d="M120.78,92.56v-4.74h3.18v.63h-2.47v1.39h2.42v.63h-2.42v1.48h2.47v.63h-3.18Z"/>
        <path class="cls-3" d="M124.85,92.56v-4.74h1.69c1.48,0,2.46,1.01,2.46,2.37s-.98,2.37-2.46,2.37h-1.69ZM125.56,91.94h.98c1.09,0,1.73-.78,1.73-1.74s-.61-1.75-1.73-1.75h-.98v3.49Z"/>
        <path class="cls-3" d="M131.69,92.56v-4.74h2.22c.85,0,1.34.52,1.34,1.21,0,.6-.39.99-.82,1.09.5.08.92.59.92,1.17,0,.75-.5,1.28-1.37,1.28h-2.28ZM132.4,89.83h1.38c.48,0,.74-.3.74-.69s-.26-.7-.74-.7h-1.38v1.39ZM132.4,91.94h1.41c.5,0,.8-.28.8-.75,0-.39-.27-.73-.8-.73h-1.41v1.48Z"/>
        <path class="cls-3" d="M136.23,87.82h.72v2.86c0,.81.45,1.33,1.28,1.33s1.27-.52,1.27-1.33v-2.86h.72v2.88c0,1.18-.66,1.95-1.99,1.95s-2-.77-2-1.94v-2.89Z"/>
        <path class="cls-3" d="M141.39,91.35c.32.36.83.67,1.49.67.77,0,1.04-.39,1.04-.73,0-.5-.54-.64-1.15-.8-.76-.2-1.64-.42-1.64-1.39,0-.78.69-1.35,1.68-1.35.73,0,1.31.23,1.73.66l-.41.53c-.36-.38-.86-.55-1.37-.55s-.89.27-.89.67c0,.43.51.56,1.1.71.77.21,1.68.45,1.68,1.46,0,.74-.51,1.43-1.79,1.43-.85,0-1.46-.31-1.87-.75l.4-.55Z"/>
        <path class="cls-3" d="M145.47,92.56v-4.74h.71v4.74h-.71Z"/>
        <path class="cls-3" d="M150.57,92.56l-2.62-3.64v3.64h-.71v-4.74h.73l2.58,3.55v-3.55h.71v4.74h-.69Z"/>
        <path class="cls-3" d="M152.31,92.56v-4.74h3.18v.63h-2.47v1.39h2.42v.63h-2.42v1.48h2.47v.63h-3.18Z"/>
        <path class="cls-3" d="M156.49,91.35c.32.36.83.67,1.49.67.77,0,1.04-.39,1.04-.73,0-.5-.54-.64-1.15-.8-.76-.2-1.64-.42-1.64-1.39,0-.78.69-1.35,1.68-1.35.73,0,1.31.23,1.73.66l-.41.53c-.36-.38-.86-.55-1.37-.55s-.89.27-.89.67c0,.43.51.56,1.1.71.77.21,1.68.45,1.68,1.46,0,.74-.51,1.43-1.79,1.43-.85,0-1.46-.31-1.87-.75l.4-.55Z"/>
        <path class="cls-3" d="M160.69,91.35c.32.36.83.67,1.49.67.77,0,1.04-.39,1.04-.73,0-.5-.54-.64-1.15-.8-.76-.2-1.64-.42-1.64-1.39,0-.78.69-1.35,1.68-1.35.73,0,1.31.23,1.73.66l-.41.53c-.36-.38-.86-.55-1.37-.55s-.89.27-.89.67c0,.43.51.56,1.1.71.77.21,1.68.45,1.68,1.46,0,.74-.51,1.43-1.79,1.43-.85,0-1.46-.31-1.87-.75l.4-.55Z"/>
      </g>
      <g>
        <path class="cls-1" d="M75.01,37.44l1.89,1.84c1.89,1.89,2.87,4.48,2.87,7.06s-.98,5.11-2.87,7l-7.06,7.06-3.56-3.5c2.47-2.47,4.88-4.94,7.23-7.29,1.95-1.95,2.93-4.48,2.93-7.06,0-1.78-.46-3.56-1.44-5.11h0Z"/>
        <path class="cls-1" d="M67.44,31.47l1.84,1.84c1.95,1.95,2.93,4.54,2.93,7.06s-.98,5.11-2.93,7.06l-3.5,3.5h0l-2.41,2.41h0l-.29.29-.29-.29c-1.95-1.89-2.93-4.48-2.93-7s.98-5.17,2.93-7.06l1.21-1.26c-.63,1.38-.98,2.87-.98,4.36,0,1.21.23,2.41.69,3.56l2.24-2.24c1.95-1.95,2.93-4.54,2.93-7.06,0-1.78-.46-3.56-1.44-5.17h0Z"/>
        <g>
          <rect class="cls-1" x="70.35" y="61.78" width="4.14" height="19.35" rx=".38" ry=".38"/>
          <rect class="cls-1" x="65.15" y="66.57" width="4.14" height="14.56" rx=".38" ry=".38"/>
        </g>
        <rect class="cls-1" x="67.75" y="46.12" width="4.14" height="24.94" rx=".5" ry=".5" transform="translate(128.41 -11.22) rotate(90)"/>
      </g>
    </g>
  </g>
  <path class="cls-2" d="M243.44,6.53c30.07,0,54.53,24.46,54.53,54.53s-24.46,54.53-54.53,54.53-54.53-24.46-54.53-54.53S213.38,6.53,243.44,6.53Z"/>
  <g>
    <path class="cls-3" d="M262.81,42v7.26h-3.11v-7.26h-6.44v-2.83h6.44v-6.98h3.11v6.98h6.41v2.83h-6.41Z"/>
    <g>
      <path class="cls-3" d="M222.66,87.93l-1.94-3.26h-1.52v3.26h-1.53v-8.72h3.83c1.73,0,2.85,1.12,2.85,2.73s-1.02,2.39-2.07,2.56l2.13,3.43h-1.77ZM221.3,80.55h-2.09v2.77h2.09c.86,0,1.49-.55,1.49-1.39s-.63-1.39-1.49-1.39Z"/>
      <path class="cls-3" d="M232.06,87.93l-.64-1.67h-4.13l-.64,1.67h-1.67l3.43-8.72h1.91l3.43,8.72h-1.67ZM229.35,80.5l-1.64,4.41h3.27l-1.63-4.41Z"/>
      <path class="cls-3" d="M235.92,87.93v-7.38h-2.64v-1.35h6.81v1.35h-2.64v7.38h-1.53Z"/>
      <path class="cls-3" d="M241.38,87.93v-8.72h1.53v8.72h-1.53Z"/>
      <path class="cls-3" d="M250.85,87.93l-4.55-6.36v6.36h-1.53v-8.72h1.57l4.46,6.19v-6.19h1.53v8.72h-1.48Z"/>
      <path class="cls-3" d="M258.37,79.06c1.7,0,2.81.81,3.52,1.82l-1.26.71c-.46-.65-1.28-1.16-2.26-1.16-1.73,0-3.01,1.32-3.01,3.15s1.28,3.17,3.01,3.17c.89,0,1.67-.42,2.07-.78v-1.36h-2.6v-1.35h4.13v3.27c-.86.95-2.08,1.58-3.6,1.58-2.52,0-4.58-1.79-4.58-4.53s2.05-4.51,4.58-4.51Z"/>
    </g>
    <path class="cls-3" d="M252.03,74.72l-2.68-7.33h-19l-2.68,7.33h-9.95l16.45-42.52h11.35l16.38,42.52h-9.88ZM239.85,40.04l-7.08,19.51h14.09l-7.01-19.51Z"/>
  </g>
</svg>