<svg xmlns="http://www.w3.org/2000/svg" xmlns:xlink="http://www.w3.org/1999/xlink" width="323" zoomAndPan="magnify" viewBox="0 0 242.25 62.249996" height="83" preserveAspectRatio="xMidYMid meet" version="1.0"><defs><g/><clipPath id="c314c5012e"><rect x="0" width="65" y="0" height="16"/></clipPath></defs><g fill="#da3729" fill-opacity="1"><g transform="translate(8.342003, 37.70509)"><g><path d="M 9.921875 -5.4375 L 9.921875 -24.75 C 9.921875 -25.09375 10.085938 -25.265625 10.421875 -25.265625 L 13.703125 -25.265625 C 14.035156 -25.265625 14.203125 -25.09375 14.203125 -24.75 L 14.203125 -4.546875 C 14.203125 -3.078125 13.8125 -1.953125 13.03125 -1.171875 C 12.257812 -0.390625 11.132812 0 9.65625 0 L 6.125 0 C 4.65625 0 3.53125 -0.390625 2.75 -1.171875 C 1.96875 -1.953125 1.578125 -3.078125 1.578125 -4.546875 L 1.578125 -7.828125 C 1.578125 -8.171875 1.742188 -8.34375 2.078125 -8.34375 L 5.234375 -8.34375 C 5.578125 -8.34375 5.75 -8.171875 5.75 -7.828125 L 5.75 -5.4375 C 5.75 -4.59375 6.171875 -4.171875 7.015625 -4.171875 L 8.65625 -4.171875 C 9.5 -4.171875 9.921875 -4.59375 9.921875 -5.4375 Z M 9.921875 -5.4375 "/></g></g></g><g fill="#da3729" fill-opacity="1"><g transform="translate(25.077703, 37.70509)"><g><path d="M 1.578125 -0.5 L 1.578125 -24.75 C 1.578125 -25.09375 1.742188 -25.265625 2.078125 -25.265625 L 9.65625 -25.265625 C 11.15625 -25.265625 12.285156 -24.878906 13.046875 -24.109375 C 13.816406 -23.335938 14.203125 -22.207031 14.203125 -20.71875 L 14.203125 -13.015625 C 14.203125 -11.535156 13.816406 -10.40625 13.046875 -9.625 C 12.285156 -8.851562 11.15625 -8.46875 9.65625 -8.46875 L 5.875 -8.46875 L 5.875 -0.5 C 5.875 -0.164062 5.707031 0 5.375 0 L 2.078125 0 C 1.742188 0 1.578125 -0.164062 1.578125 -0.5 Z M 5.875 -12.625 L 8.65625 -12.625 C 9.5 -12.625 9.921875 -13.046875 9.921875 -13.890625 L 9.921875 -19.828125 C 9.921875 -20.671875 9.5 -21.09375 8.65625 -21.09375 L 5.875 -21.09375 Z M 5.875 -12.625 "/></g></g></g><g fill="#2f2e2d" fill-opacity="1"><g transform="translate(41.817586, 37.70509)"><g><path d="M 14.234375 -20.71875 L 14.234375 -17.3125 C 14.234375 -16.96875 14.066406 -16.796875 13.734375 -16.796875 L 10.578125 -16.796875 C 10.242188 -16.796875 10.078125 -16.96875 10.078125 -17.3125 L 10.078125 -19.828125 C 10.078125 -20.671875 9.65625 -21.09375 8.8125 -21.09375 L 7.171875 -21.09375 C 6.328125 -21.09375 5.90625 -20.671875 5.90625 -19.828125 L 5.90625 -5.4375 C 5.90625 -4.59375 6.328125 -4.171875 7.171875 -4.171875 L 8.8125 -4.171875 C 9.65625 -4.171875 10.078125 -4.59375 10.078125 -5.4375 L 10.078125 -7.953125 C 10.078125 -8.296875 10.242188 -8.46875 10.578125 -8.46875 L 13.734375 -8.46875 C 14.066406 -8.46875 14.234375 -8.296875 14.234375 -7.953125 L 14.234375 -4.546875 C 14.234375 -3.078125 13.84375 -1.953125 13.0625 -1.171875 C 12.289062 -0.390625 11.164062 0 9.6875 0 L 6.15625 0 C 4.6875 0 3.554688 -0.390625 2.765625 -1.171875 C 1.972656 -1.953125 1.578125 -3.078125 1.578125 -4.546875 L 1.578125 -20.71875 C 1.578125 -22.207031 1.972656 -23.335938 2.765625 -24.109375 C 3.554688 -24.878906 4.6875 -25.265625 6.15625 -25.265625 L 9.6875 -25.265625 C 11.164062 -25.265625 12.289062 -24.878906 13.0625 -24.109375 C 13.84375 -23.335938 14.234375 -22.207031 14.234375 -20.71875 Z M 14.234375 -20.71875 "/></g></g></g><g fill="#2f2e2d" fill-opacity="1"><g transform="translate(58.584857, 37.70509)"><g><path d="M 1.578125 -4.546875 L 1.578125 -20.71875 C 1.578125 -22.207031 1.96875 -23.335938 2.75 -24.109375 C 3.53125 -24.878906 4.65625 -25.265625 6.125 -25.265625 L 9.65625 -25.265625 C 11.15625 -25.265625 12.285156 -24.878906 13.046875 -24.109375 C 13.816406 -23.335938 14.203125 -22.207031 14.203125 -20.71875 L 14.203125 -4.546875 C 14.203125 -3.078125 13.816406 -1.953125 13.046875 -1.171875 C 12.285156 -0.390625 11.15625 0 9.65625 0 L 6.125 0 C 4.65625 0 3.53125 -0.390625 2.75 -1.171875 C 1.96875 -1.953125 1.578125 -3.078125 1.578125 -4.546875 Z M 7.046875 -4.078125 L 8.875 -4.078125 C 9.71875 -4.078125 10.140625 -4.5 10.140625 -5.34375 L 10.140625 -19.921875 C 10.140625 -20.765625 9.71875 -21.1875 8.875 -21.1875 L 7.046875 -21.1875 C 6.203125 -21.1875 5.78125 -20.765625 5.78125 -19.921875 L 5.78125 -5.34375 C 5.78125 -4.5 6.203125 -4.078125 7.046875 -4.078125 Z M 7.046875 -4.078125 "/></g></g></g><g fill="#2f2e2d" fill-opacity="1"><g transform="translate(75.320556, 37.70509)"><g><path d="M 11.265625 -25.265625 L 14.5625 -25.265625 C 14.894531 -25.265625 15.0625 -25.09375 15.0625 -24.75 L 15.0625 -0.5 C 15.0625 -0.164062 14.894531 0 14.5625 0 L 11.4375 0 C 11.132812 0 10.941406 -0.132812 10.859375 -0.40625 L 6.03125 -13.890625 L 5.875 -13.890625 L 5.875 -0.5 C 5.875 -0.164062 5.707031 0 5.375 0 L 2.078125 0 C 1.742188 0 1.578125 -0.164062 1.578125 -0.5 L 1.578125 -24.75 C 1.578125 -25.09375 1.742188 -25.265625 2.078125 -25.265625 L 5.203125 -25.265625 C 5.503906 -25.265625 5.695312 -25.128906 5.78125 -24.859375 L 10.578125 -11.4375 L 10.765625 -11.4375 L 10.765625 -24.75 C 10.765625 -25.09375 10.929688 -25.265625 11.265625 -25.265625 Z M 11.265625 -25.265625 "/></g></g></g><g fill="#2f2e2d" fill-opacity="1"><g transform="translate(92.908822, 37.70509)"><g><path d="M 6.125 -25.265625 L 9.65625 -25.265625 C 11.15625 -25.265625 12.285156 -24.878906 13.046875 -24.109375 C 13.816406 -23.335938 14.203125 -22.207031 14.203125 -20.71875 L 14.203125 -17.375 C 14.203125 -17.03125 14.035156 -16.859375 13.703125 -16.859375 L 10.421875 -16.859375 C 10.085938 -16.859375 9.921875 -17.03125 9.921875 -17.375 L 9.921875 -19.828125 C 9.921875 -20.671875 9.5 -21.09375 8.65625 -21.09375 L 7.140625 -21.09375 C 6.296875 -21.09375 5.875 -20.671875 5.875 -19.828125 L 5.875 -15.46875 L 13.390625 -13.015625 C 13.929688 -12.773438 14.203125 -12.382812 14.203125 -11.84375 L 14.203125 -4.546875 C 14.203125 -3.078125 13.816406 -1.953125 13.046875 -1.171875 C 12.285156 -0.390625 11.15625 0 9.65625 0 L 6.125 0 C 4.65625 0 3.53125 -0.390625 2.75 -1.171875 C 1.96875 -1.953125 1.578125 -3.078125 1.578125 -4.546875 L 1.578125 -7.859375 C 1.578125 -8.203125 1.742188 -8.375 2.078125 -8.375 L 5.375 -8.375 C 5.707031 -8.375 5.875 -8.203125 5.875 -7.859375 L 5.875 -5.4375 C 5.875 -4.59375 6.296875 -4.171875 7.140625 -4.171875 L 8.65625 -4.171875 C 9.5 -4.171875 9.921875 -4.59375 9.921875 -5.4375 L 9.921875 -9.625 L 2.4375 -12.09375 C 1.863281 -12.28125 1.578125 -12.671875 1.578125 -13.265625 L 1.578125 -20.71875 C 1.578125 -22.207031 1.96875 -23.335938 2.75 -24.109375 C 3.53125 -24.878906 4.65625 -25.265625 6.125 -25.265625 Z M 6.125 -25.265625 "/></g></g></g><g fill="#2f2e2d" fill-opacity="1"><g transform="translate(109.644522, 37.70509)"><g><path d="M 1.453125 -25.265625 L 13.078125 -25.265625 C 13.410156 -25.265625 13.578125 -25.09375 13.578125 -24.75 L 13.578125 -21.59375 C 13.578125 -21.257812 13.410156 -21.09375 13.078125 -21.09375 L 9.40625 -21.09375 L 9.40625 -0.5 C 9.40625 -0.164062 9.238281 0 8.90625 0 L 5.625 0 C 5.28125 0 5.109375 -0.164062 5.109375 -0.5 L 5.109375 -21.09375 L 1.453125 -21.09375 C 1.117188 -21.09375 0.953125 -21.257812 0.953125 -21.59375 L 0.953125 -24.75 C 0.953125 -25.09375 1.117188 -25.265625 1.453125 -25.265625 Z M 1.453125 -25.265625 "/></g></g></g><g fill="#2f2e2d" fill-opacity="1"><g transform="translate(125.117145, 37.70509)"><g><path d="M 14.5625 -20.71875 L 14.5625 -13.015625 C 14.5625 -10.910156 13.789062 -9.519531 12.25 -8.84375 L 14.4375 -0.5625 C 14.539062 -0.1875 14.390625 0 13.984375 0 L 10.703125 0 C 10.410156 0 10.234375 -0.144531 10.171875 -0.4375 L 8.046875 -8.46875 L 5.875 -8.46875 L 5.875 -0.5 C 5.875 -0.164062 5.707031 0 5.375 0 L 2.078125 0 C 1.742188 0 1.578125 -0.164062 1.578125 -0.5 L 1.578125 -24.75 C 1.578125 -25.09375 1.742188 -25.265625 2.078125 -25.265625 L 10.015625 -25.265625 C 11.503906 -25.265625 12.632812 -24.878906 13.40625 -24.109375 C 14.175781 -23.335938 14.5625 -22.207031 14.5625 -20.71875 Z M 5.875 -12.625 L 9 -12.625 C 9.84375 -12.625 10.265625 -13.046875 10.265625 -13.890625 L 10.265625 -19.828125 C 10.265625 -20.671875 9.84375 -21.09375 9 -21.09375 L 5.875 -21.09375 Z M 5.875 -12.625 "/></g></g></g><g fill="#2f2e2d" fill-opacity="1"><g transform="translate(142.200188, 37.70509)"><g><path d="M 10.671875 -25.265625 L 13.578125 -25.265625 C 13.742188 -25.265625 13.890625 -25.203125 14.015625 -25.078125 C 14.140625 -24.953125 14.203125 -24.800781 14.203125 -24.625 L 14.203125 -4.546875 C 14.203125 -3.078125 13.816406 -1.953125 13.046875 -1.171875 C 12.285156 -0.390625 11.15625 0 9.65625 0 L 6.125 0 C 4.65625 0 3.53125 -0.390625 2.75 -1.171875 C 1.96875 -1.953125 1.578125 -3.078125 1.578125 -4.546875 L 1.578125 -24.625 C 1.578125 -24.800781 1.640625 -24.953125 1.765625 -25.078125 C 1.890625 -25.203125 2.035156 -25.265625 2.203125 -25.265625 L 5.234375 -25.265625 C 5.410156 -25.265625 5.5625 -25.203125 5.6875 -25.078125 C 5.8125 -24.953125 5.875 -24.800781 5.875 -24.625 L 5.875 -5.4375 C 5.875 -4.59375 6.296875 -4.171875 7.140625 -4.171875 L 8.78125 -4.171875 C 9.625 -4.171875 10.046875 -4.59375 10.046875 -5.4375 L 10.046875 -24.625 C 10.046875 -24.800781 10.109375 -24.953125 10.234375 -25.078125 C 10.359375 -25.203125 10.503906 -25.265625 10.671875 -25.265625 Z M 10.671875 -25.265625 "/></g></g></g><g fill="#2f2e2d" fill-opacity="1"><g transform="translate(158.935888, 37.70509)"><g><path d="M 14.234375 -20.71875 L 14.234375 -17.3125 C 14.234375 -16.96875 14.066406 -16.796875 13.734375 -16.796875 L 10.578125 -16.796875 C 10.242188 -16.796875 10.078125 -16.96875 10.078125 -17.3125 L 10.078125 -19.828125 C 10.078125 -20.671875 9.65625 -21.09375 8.8125 -21.09375 L 7.171875 -21.09375 C 6.328125 -21.09375 5.90625 -20.671875 5.90625 -19.828125 L 5.90625 -5.4375 C 5.90625 -4.59375 6.328125 -4.171875 7.171875 -4.171875 L 8.8125 -4.171875 C 9.65625 -4.171875 10.078125 -4.59375 10.078125 -5.4375 L 10.078125 -7.953125 C 10.078125 -8.296875 10.242188 -8.46875 10.578125 -8.46875 L 13.734375 -8.46875 C 14.066406 -8.46875 14.234375 -8.296875 14.234375 -7.953125 L 14.234375 -4.546875 C 14.234375 -3.078125 13.84375 -1.953125 13.0625 -1.171875 C 12.289062 -0.390625 11.164062 0 9.6875 0 L 6.15625 0 C 4.6875 0 3.554688 -0.390625 2.765625 -1.171875 C 1.972656 -1.953125 1.578125 -3.078125 1.578125 -4.546875 L 1.578125 -20.71875 C 1.578125 -22.207031 1.972656 -23.335938 2.765625 -24.109375 C 3.554688 -24.878906 4.6875 -25.265625 6.15625 -25.265625 L 9.6875 -25.265625 C 11.164062 -25.265625 12.289062 -24.878906 13.0625 -24.109375 C 13.84375 -23.335938 14.234375 -22.207031 14.234375 -20.71875 Z M 14.234375 -20.71875 "/></g></g></g><g fill="#2f2e2d" fill-opacity="1"><g transform="translate(175.703158, 37.70509)"><g><path d="M 1.453125 -25.265625 L 13.078125 -25.265625 C 13.410156 -25.265625 13.578125 -25.09375 13.578125 -24.75 L 13.578125 -21.59375 C 13.578125 -21.257812 13.410156 -21.09375 13.078125 -21.09375 L 9.40625 -21.09375 L 9.40625 -0.5 C 9.40625 -0.164062 9.238281 0 8.90625 0 L 5.625 0 C 5.28125 0 5.109375 -0.164062 5.109375 -0.5 L 5.109375 -21.09375 L 1.453125 -21.09375 C 1.117188 -21.09375 0.953125 -21.257812 0.953125 -21.59375 L 0.953125 -24.75 C 0.953125 -25.09375 1.117188 -25.265625 1.453125 -25.265625 Z M 1.453125 -25.265625 "/></g></g></g><g fill="#2f2e2d" fill-opacity="1"><g transform="translate(191.175782, 37.70509)"><g><path d="M 2.078125 -25.265625 L 5.375 -25.265625 C 5.707031 -25.265625 5.875 -25.09375 5.875 -24.75 L 5.875 -0.5 C 5.875 -0.164062 5.707031 0 5.375 0 L 2.078125 0 C 1.742188 0 1.578125 -0.164062 1.578125 -0.5 L 1.578125 -24.75 C 1.578125 -25.09375 1.742188 -25.265625 2.078125 -25.265625 Z M 2.078125 -25.265625 "/></g></g></g><g fill="#2f2e2d" fill-opacity="1"><g transform="translate(199.575243, 37.70509)"><g><path d="M 1.578125 -4.546875 L 1.578125 -20.71875 C 1.578125 -22.207031 1.96875 -23.335938 2.75 -24.109375 C 3.53125 -24.878906 4.65625 -25.265625 6.125 -25.265625 L 9.65625 -25.265625 C 11.15625 -25.265625 12.285156 -24.878906 13.046875 -24.109375 C 13.816406 -23.335938 14.203125 -22.207031 14.203125 -20.71875 L 14.203125 -4.546875 C 14.203125 -3.078125 13.816406 -1.953125 13.046875 -1.171875 C 12.285156 -0.390625 11.15625 0 9.65625 0 L 6.125 0 C 4.65625 0 3.53125 -0.390625 2.75 -1.171875 C 1.96875 -1.953125 1.578125 -3.078125 1.578125 -4.546875 Z M 7.046875 -4.078125 L 8.875 -4.078125 C 9.71875 -4.078125 10.140625 -4.5 10.140625 -5.34375 L 10.140625 -19.921875 C 10.140625 -20.765625 9.71875 -21.1875 8.875 -21.1875 L 7.046875 -21.1875 C 6.203125 -21.1875 5.78125 -20.765625 5.78125 -19.921875 L 5.78125 -5.34375 C 5.78125 -4.5 6.203125 -4.078125 7.046875 -4.078125 Z M 7.046875 -4.078125 "/></g></g></g><g fill="#2f2e2d" fill-opacity="1"><g transform="translate(216.310942, 37.70509)"><g><path d="M 11.265625 -25.265625 L 14.5625 -25.265625 C 14.894531 -25.265625 15.0625 -25.09375 15.0625 -24.75 L 15.0625 -0.5 C 15.0625 -0.164062 14.894531 0 14.5625 0 L 11.4375 0 C 11.132812 0 10.941406 -0.132812 10.859375 -0.40625 L 6.03125 -13.890625 L 5.875 -13.890625 L 5.875 -0.5 C 5.875 -0.164062 5.707031 0 5.375 0 L 2.078125 0 C 1.742188 0 1.578125 -0.164062 1.578125 -0.5 L 1.578125 -24.75 C 1.578125 -25.09375 1.742188 -25.265625 2.078125 -25.265625 L 5.203125 -25.265625 C 5.503906 -25.265625 5.695312 -25.128906 5.78125 -24.859375 L 10.578125 -11.4375 L 10.765625 -11.4375 L 10.765625 -24.75 C 10.765625 -25.09375 10.929688 -25.265625 11.265625 -25.265625 Z M 11.265625 -25.265625 "/></g></g></g><g transform="matrix(1, 0, 0, 1, 171, 43)"><g clip-path="url(#c314c5012e)"><g fill="#2f2e2d" fill-opacity="1"><g transform="translate(0.789424, 12.914113)"><g><path d="M 6.953125 -4.1875 L 8.203125 -4.1875 L 8.203125 -1.046875 C 7.765625 -0.710938 7.242188 -0.441406 6.640625 -0.234375 C 6.046875 -0.0351562 5.460938 0.0625 4.890625 0.0625 C 3.628906 0.0625 2.566406 -0.351562 1.703125 -1.1875 C 0.835938 -2.019531 0.40625 -3.046875 0.40625 -4.265625 C 0.40625 -5.484375 0.84375 -6.503906 1.71875 -7.328125 C 2.601562 -8.148438 3.691406 -8.5625 4.984375 -8.5625 C 5.578125 -8.5625 6.164062 -8.453125 6.75 -8.234375 C 7.332031 -8.015625 7.832031 -7.722656 8.25 -7.359375 L 7.4375 -6.3125 C 6.738281 -6.957031 5.921875 -7.28125 4.984375 -7.28125 C 4.109375 -7.28125 3.367188 -6.988281 2.765625 -6.40625 C 2.171875 -5.820312 1.875 -5.109375 1.875 -4.265625 C 1.875 -3.410156 2.175781 -2.691406 2.78125 -2.109375 C 3.382812 -1.523438 4.117188 -1.234375 4.984375 -1.234375 C 5.640625 -1.234375 6.296875 -1.425781 6.953125 -1.8125 Z M 6.953125 -4.1875 "/></g></g></g><g fill="#2f2e2d" fill-opacity="1"><g transform="translate(13.544524, 12.914113)"><g><path d="M 6.53125 0 L 4.96875 -2.578125 C 4.882812 -2.566406 4.753906 -2.5625 4.578125 -2.5625 L 2.5625 -2.5625 L 2.5625 0 L 1.125 0 L 1.125 -8.515625 L 4.578125 -8.515625 C 5.660156 -8.515625 6.503906 -8.257812 7.109375 -7.75 C 7.710938 -7.25 8.015625 -6.535156 8.015625 -5.609375 C 8.015625 -4.929688 7.859375 -4.351562 7.546875 -3.875 C 7.242188 -3.40625 6.8125 -3.0625 6.25 -2.84375 L 8.15625 0 Z M 2.5625 -3.859375 L 4.578125 -3.859375 C 5.953125 -3.859375 6.640625 -4.429688 6.640625 -5.578125 C 6.640625 -6.679688 5.953125 -7.234375 4.578125 -7.234375 L 2.5625 -7.234375 Z M 2.5625 -3.859375 "/></g></g></g><g fill="#2f2e2d" fill-opacity="1"><g transform="translate(25.983615, 12.914113)"><g><path d="M 1.703125 -7.328125 C 2.578125 -8.148438 3.648438 -8.5625 4.921875 -8.5625 C 6.203125 -8.5625 7.273438 -8.148438 8.140625 -7.328125 C 9.015625 -6.503906 9.453125 -5.484375 9.453125 -4.265625 C 9.453125 -3.046875 9.015625 -2.019531 8.140625 -1.1875 C 7.273438 -0.351562 6.203125 0.0625 4.921875 0.0625 C 3.648438 0.0625 2.578125 -0.351562 1.703125 -1.1875 C 0.835938 -2.019531 0.40625 -3.046875 0.40625 -4.265625 C 0.40625 -5.484375 0.835938 -6.503906 1.703125 -7.328125 Z M 4.9375 -7.265625 C 4.09375 -7.265625 3.367188 -6.972656 2.765625 -6.390625 C 2.171875 -5.816406 1.875 -5.109375 1.875 -4.265625 C 1.875 -3.421875 2.175781 -2.703125 2.78125 -2.109375 C 3.382812 -1.523438 4.101562 -1.234375 4.9375 -1.234375 C 5.78125 -1.234375 6.492188 -1.523438 7.078125 -2.109375 C 7.671875 -2.703125 7.96875 -3.421875 7.96875 -4.265625 C 7.96875 -5.109375 7.671875 -5.816406 7.078125 -6.390625 C 6.492188 -6.972656 5.78125 -7.265625 4.9375 -7.265625 Z M 4.9375 -7.265625 "/></g></g></g><g fill="#2f2e2d" fill-opacity="1"><g transform="translate(39.480126, 12.914113)"><g><path d="M 8.359375 -8.515625 L 8.359375 -3.53125 C 8.359375 -2.414062 8.03125 -1.535156 7.375 -0.890625 C 6.71875 -0.253906 5.8125 0.0625 4.65625 0.0625 C 3.507812 0.0625 2.601562 -0.253906 1.9375 -0.890625 C 1.28125 -1.535156 0.953125 -2.414062 0.953125 -3.53125 L 0.953125 -8.515625 L 2.390625 -8.515625 L 2.390625 -3.53125 C 2.390625 -2.8125 2.59375 -2.25 3 -1.84375 C 3.40625 -1.4375 3.960938 -1.234375 4.671875 -1.234375 C 5.367188 -1.234375 5.914062 -1.4375 6.3125 -1.84375 C 6.71875 -2.25 6.921875 -2.8125 6.921875 -3.53125 L 6.921875 -8.515625 Z M 8.359375 -8.515625 "/></g></g></g><g fill="#2f2e2d" fill-opacity="1"><g transform="translate(52.417549, 12.914113)"><g><path d="M 1.125 -8.515625 L 4.515625 -8.515625 C 5.585938 -8.515625 6.414062 -8.257812 7 -7.75 C 7.59375 -7.25 7.890625 -6.535156 7.890625 -5.609375 C 7.890625 -4.640625 7.59375 -3.890625 7 -3.359375 C 6.414062 -2.828125 5.585938 -2.5625 4.515625 -2.5625 L 2.5625 -2.5625 L 2.5625 0 L 1.125 0 Z M 2.5625 -7.234375 L 2.5625 -3.859375 L 4.453125 -3.859375 C 5.828125 -3.859375 6.515625 -4.429688 6.515625 -5.578125 C 6.515625 -6.679688 5.828125 -7.234375 4.453125 -7.234375 Z M 2.5625 -7.234375 "/></g></g></g></g></g></svg>